<svg width="260" height="232" viewBox="0 0 260 232" fill="none" xmlns="http://www.w3.org/2000/svg">
<path d="M51.9465 0.199473C41.8361 1.80487 33.8261 8.40097 30.5509 17.8589C29.2693 21.4885 28.9489 28.0497 29.8389 31.784C31.5477 38.9036 37.0657 45.8836 43.5449 49.0595C48.7781 51.6421 55.6845 52.5495 61.2381 51.3978C64.7269 50.63 69.8177 48.2568 72.4165 46.1628C81.6369 38.6942 84.7341 25.9208 79.8925 15.3461C76.6529 8.33117 70.3161 2.99147 62.7689 0.932373C59.8141 0.129673 54.6165 -0.219327 51.9465 0.199473Z" fill="#740FF2"/>
<path d="M198.867 0.270031C195.77 0.723731 191.285 2.39893 188.543 4.14393C174.446 13.1481 172.274 32.3431 184.022 44.0346C187.262 47.2803 190.466 49.2696 194.702 50.7354C197.337 51.6079 197.977 51.6777 202.89 51.6777C207.803 51.6777 208.444 51.6079 211.078 50.7354C221.58 47.1407 228.593 38.2412 229.305 27.6316C230.409 11.1239 215.706 -2.06827 198.867 0.270031Z" fill="#121212"/>
<path d="M24.9613 57.9942C22.2913 58.9714 19.3009 61.6936 18.3753 63.997C18.1617 64.5205 13.9253 79.8067 9.01253 97.9547C0.183732 130.307 0.041332 131.005 0.00573205 134.425C-0.0298679 137.566 0.076932 138.125 1.00253 140.079C2.03493 142.313 4.13533 144.546 6.05773 145.523C6.62733 145.803 8.01573 146.326 9.15493 146.64C10.2585 146.954 11.1841 147.268 11.1841 147.338C11.1841 147.443 10.2229 152.434 9.04813 158.471C7.87333 164.509 6.91213 169.709 6.91213 170.023C6.91213 170.477 8.01573 170.547 15.5985 170.547H24.2849L24.4985 171.489C24.6053 172.047 26.5277 185.344 28.8061 201.084C31.0845 216.824 33.0069 230.226 33.1137 230.854L33.3273 231.971H55.6841H78.0409L78.2545 231.028C78.3613 230.47 80.3193 217.173 82.5621 201.433C84.8405 185.693 86.7629 172.292 86.8697 171.663L87.0833 170.547H95.8765H104.705L102.463 158.96C100.113 146.884 100.113 146.85 101.786 146.815C102.89 146.815 105.951 145.279 107.447 144.023C108.159 143.394 109.155 142.208 109.654 141.405C110.829 139.381 111.683 135.298 111.434 132.75C111.185 130.167 93.5625 65.044 92.6369 63.2641C91.5689 61.2399 89.0413 59.0063 86.7985 58.2036C84.8761 57.4707 84.3065 57.4707 55.5773 57.5056C31.3337 57.5056 26.0649 57.6103 24.9613 57.9942ZM62.4481 68.2548C65.7233 69.2669 68.9985 71.2562 71.5261 73.7341C81.4941 83.541 79.7853 99.6997 67.9661 107.308C66.5421 108.215 64.4773 109.297 63.3737 109.646L61.3801 110.309V114.253V118.162L65.4029 118.266L69.3901 118.371V123.606V128.841L65.4029 128.946L61.4157 129.051L61.3089 132.959L61.2021 136.868L55.7909 136.973L50.3441 137.078V133.029V129.016H46.2501H42.1561V123.606V118.197H46.2501H50.3441V114.253V110.309L48.4929 109.716C43.6157 108.215 38.3113 103.643 35.9617 98.9668C34.2529 95.4768 33.6121 92.8244 33.6121 89.0552C33.6121 82.9826 35.6413 78.1664 39.9845 73.8737C43.5445 70.3488 47.3181 68.3595 52.1241 67.4521C54.1177 67.0682 60.1697 67.5568 62.4481 68.2548Z" fill="#740FF2"/>
<path d="M53.6192 78.0613C50.0236 78.7942 46.784 81.3419 45.2532 84.6225C44.1496 86.9957 44.1852 91.1837 45.3244 93.6616C46.3212 95.8254 48.9556 98.408 51.3408 99.455C53.6904 100.537 58.0336 100.502 60.3476 99.3852C62.982 98.1637 64.7976 96.3838 66.0436 93.9408C67.1116 91.8119 67.1472 91.5327 67.0048 88.636C66.8268 85.0762 66.1148 83.401 63.8364 81.1674C61.2376 78.6197 57.108 77.3633 53.6192 78.0613Z" fill="#740FF2"/>
<path d="M165.51 58.0291C164.335 58.3083 162.021 59.1808 160.348 59.9835C157.892 61.1701 156.681 62.0775 154.083 64.6252C151.448 67.1729 150.594 68.3246 149.383 70.7327C147.319 74.8858 146.678 77.5033 146.713 81.9007C146.713 87.2753 154.973 142.243 156.076 144.337C157.999 148.071 161.416 150.305 165.581 150.584C167.575 150.723 168.18 150.863 168.323 151.317C168.394 151.631 170.672 169.884 173.378 191.906L178.291 231.971H202.89H227.49L228.237 225.759C228.665 222.373 230.872 204.435 233.15 185.903C235.429 167.371 237.351 151.875 237.422 151.491C237.565 150.828 237.885 150.723 240.163 150.584C244.364 150.305 247.817 148.106 249.669 144.476C250.559 142.731 250.452 143.325 255.4 109.821C259.743 80.5745 259.779 80.0859 258.213 75.0603C256.86 70.6978 255.187 68.0454 251.698 64.6252C249.099 62.0775 247.889 61.1701 245.432 59.9835C239.95 57.366 241.943 57.4707 202.712 57.5056C173.449 57.5405 167.29 57.6103 165.51 58.0291ZM208.195 67.9407C216.347 69.9649 222.719 76.2469 224.571 83.9947C225.283 86.9263 225.283 91.6727 224.606 94.2902C223.36 99.0017 220.334 103.643 216.81 106.296C215.101 107.587 210.722 109.856 209.12 110.274C208.444 110.449 208.408 110.728 208.408 115.056C208.408 118.615 208.515 119.593 208.871 119.383C209.085 119.244 210.687 118.197 212.431 117.08C214.14 115.963 215.777 114.951 216.027 114.846C216.383 114.707 217.486 115.998 219.409 118.86C221.011 121.163 222.292 123.152 222.292 123.257C222.292 123.711 202.997 135.996 202.605 135.786C202.356 135.647 197.942 132.785 192.815 129.469L183.417 123.397L184.058 122.454C187.333 117.534 189.362 114.707 189.611 114.707C189.789 114.707 191.605 115.823 193.634 117.15L197.372 119.593V115.021C197.372 110.588 197.337 110.449 196.589 110.239C196.126 110.135 194.382 109.367 192.709 108.529C187.653 106.051 183.951 101.933 181.779 96.2795C180.961 94.2204 180.854 93.4177 180.818 89.4042C180.818 85.5303 180.925 84.4833 181.673 82.2846C185.268 71.5703 197.123 65.1487 208.195 67.9407Z" fill="#121212"/>
<path d="M200.861 78.0965C198.725 78.4106 195.841 79.9462 194.453 81.5167C191.356 84.9369 190.572 89.9625 192.495 93.8364C196.126 101.131 205.702 102.596 211.22 96.7331C213.428 94.3948 214.246 92.4055 214.246 89.2296C214.282 84.7275 211.968 81.0281 207.945 79.1435C205.489 77.9918 203.353 77.6777 200.861 78.0965Z" fill="#121212"/>
</svg>
